<svg class="site-logo--svg" version="1.1" xmlns="http://www.w3.org/2000/svg" x="0" y="0" width="112" height="118" viewBox="0 0 112 118" preserveAspectRatio="xMinYMin meet"><path d="M108.42 51.169c7.437-18.641-1.529-33.691-16.437-42.462 c4.004 3.9 6.8 8.7 8.3 14.213c2.287 8.5 1 17.548-1.928 25.729c-2.241 6.215-5.712 12.124-9.616 17.4 c-5.311 7.223-12.061 14.224-19.256 19.59c-1.394 1.04-3.341 2.412-5.492 3.661C79.032 84.5 101.5 68.6 108.4 51.169z" class="site-logo--svg__path blue"/><path d="M103.921 95.776c0.086-0.303 0.147-0.615 0.147-0.945 c0-1.91-1.558-3.468-3.469-3.468c-0.581 0-1.12 0.157-1.603 0.411c-2.118-1.984-4.956-3.212-8.077-3.212 c-3.724 0-7.05 1.738-9.224 4.44c-0.995-0.401-2.078-0.628-3.214-0.628c-4.761 0-8.643 3.882-8.643 8.6 c0 4.8 3.9 8.6 8.6 8.642c1.438 0 2.792-0.359 3.986-0.984c2.151 2.2 5.1 3.6 8.5 3.6 c3.889 0 7.34-1.899 9.5-4.809c0.818 0.4 1.7 0.6 2.7 0.633c3.4 0 6.174-2.773 6.174-6.175 C109.296 98.8 106.9 96.2 103.9 95.776z" class="site-logo--svg__path blue"/><path d="M23.485 69.735c-0.441 0-0.872 0.046-1.29 0.1 c-1.672-2.691-4.647-4.496-8.038-4.496c-3.985 0-7.401 2.487-8.793 5.985c-0.184-0.05-0.373-0.086-0.572-0.086 c-1.202 0-2.183 0.98-2.183 2.183c0 0.2 0 0.3 0.1 0.502C1.098 74.7 0 76.3 0 78.2 c0 2.6 2.1 4.8 4.8 4.757c1.164 0 2.219-0.438 3.047-1.137c1.683 1.5 3.9 2.5 6.4 2.5 c2.234 0 4.288-0.785 5.91-2.087c1.003 0.6 2.2 0.9 3.4 0.948c3.697 0 6.711-3.015 6.711-6.711 S27.182 69.7 23.5 69.735z" class="site-logo--svg__path blue"/><path d="M82.17 4.448c13.336 6.3 21.8 21.8 14 43.4 c-7.087 19.661-28.238 38.898-39.001 42.171c0.355-0.38 0.677-0.756 0.952-1.084c2.135-2.54 4.052-5.511 5.774-8.343 c2.375-3.904 4.56-7.952 6.591-12.044c2.306-4.646 4.43-9.398 6.329-14.226c1.369-3.482 2.625-7.015 3.718-10.594 c2.763-9.052 5.276-20.265 4.421-29.789C84.678 11 83.9 7.3 82.2 4.448z" class="site-logo--svg__path green"/><path d="M48.969 87.861c-7.685-8.215-16.383-35.451-12.69-56.021 C40.348 9.2 55.4 0 70.1 1.218c-2.933 1.548-5.433 4.395-7.17 6.862c-5.503 7.82-8.932 18.789-11.065 28 c-0.844 3.646-1.522 7.333-2.077 11.034c-0.769 5.13-1.305 10.307-1.632 15.484c-0.287 4.56-0.419 9.157-0.314 13.7 c0.076 3.3 0.2 6.8 0.8 10.112C48.761 86.9 48.9 87.4 49 87.861z" class="site-logo--svg__path orange"/><path d="M52.707 90.296c-3.32-0.89-3.95-30.304 1.455-53.665 C60.024 11.3 69.6 0.5 76.3 2.323c6.66 1.8 9.6 15.9 2 40.771C71.28 66 56 91.2 52.7 90.296z" class="site-logo--svg__path yellow"/><path d="M40.468 77.893c-3.548-8.245-5.894-17.683-6.881-26.593 c-0.726-6.552-0.778-13.403 0.389-19.907c1.536-8.559 4.96-17.02 11.195-23.246C49.193 4.1 54.1 1.4 59.5 0 C42.192 0.1 26.9 8.7 24 28.555c-2.691 18.6 8.8 43.6 19.4 55.254C42.155 81.7 41.2 79.5 40.5 77.893z" class="site-logo--svg__path red"/><path d="M58.43 93.895c-3.712 4.672-4.875 8.223-6.772 8.6 c-0.691 0.131-1.454 0.068-2.175-0.146c-0.732-0.174-1.424-0.502-1.957-0.96c-1.464-1.259-0.695-4.915-1.575-10.817 c-2.291 22.869-4.02 1.177-7.362-8.434c1.192 8.9 2.5 15.6 1.7 22.676c-0.763 7.059-3.679 8.8 3.3 10.672l4.36 1.2 c6.967 1.9 5.315-1.104 8.183-7.598c2.868-6.494 7.355-11.625 12.854-18.764C61.322 96.9 49 114.8 58.4 93.895z" class="site-logo--svg__path red"/></svg>
