<svg class="icon icon-clock" version="1.1" xmlns="http://www.w3.org/2000/svg" x="0" y="0" width="15" height="15" viewBox="0 0 15 15" preserveAspectRatio="xMinYMin"><path class="icon-foreground icon-clock--foreground" d="M7.5 0c2.1 0 3.8 0.7 5.3 2.2S15 5.4 15 7.5c0 2.1-0.7 3.8-2.2 5.3S9.6 15 7.5 15c-2.1 0-3.8-0.7-5.3-2.2S0 9.6 0 7.5c0-2.1 0.7-3.8 2.2-5.3S5.4 0 7.5 0L7.5 0M7.5 13.4c1.6 0 3-0.6 4.2-1.7 1.1-1.2 1.7-2.6 1.7-4.2 0-1.6-0.6-3-1.7-4.2C10.5 2.2 9.1 1.6 7.5 1.6c-1.6 0-3 0.6-4.1 1.7C2.2 4.5 1.6 5.9 1.6 7.5c0 1.6 0.6 3 1.7 4.1C4.5 12.8 5.9 13.4 7.5 13.4L7.5 13.4M8.1 3.3v4l2.4 2.4 -0.8 0.8L6.9 7.7V3.3H8.1L8.1 3.3"/></svg>
