<svg class="icon icon-tag" version="1.1" xmlns="http://www.w3.org/2000/svg" x="0" y="0" width="15" height="15" viewBox="0 0 15 15" preserveAspectRatio="xMinYMin"><path class="icon-foreground icon-tag--foreground" d="M4.4 3.2c0-0.3-0.1-0.6-0.4-0.9C3.8 2 3.5 1.9 3.2 1.9S2.5 2 2.3 2.3C2 2.5 1.9 2.8 1.9 3.2s0.1 0.6 0.4 0.9c0.2 0.2 0.5 0.4 0.9 0.4s0.6-0.1 0.9-0.4C4.3 3.8 4.4 3.5 4.4 3.2zM15 8.9c0 0.4-0.1 0.6-0.4 0.9l-4.9 4.9C9.5 14.9 9.2 15 8.9 15c-0.3 0-0.6-0.1-0.9-0.4L0.9 7.5c-0.2-0.2-0.5-0.6-0.6-1C0.1 6.1 0 5.7 0 5.4V1.3c0-0.3 0.1-0.6 0.4-0.9C0.6 0.1 0.9 0 1.3 0h4.1c0.4 0 0.7 0.1 1.2 0.3S7.3 0.7 7.6 0.9l7.1 7.1C14.9 8.2 15 8.5 15 8.9z"/></svg>
