<svg class="icon icon-twitter" version="1.1" xmlns="http://www.w3.org/2000/svg" x="0" y="0" width="68" height="68" viewBox="0 0 68 68" preserveAspectRatio="xMinYMin"><path class="icon-foreground icon-twitter--foreground" d="M68 13c-1.8 2.7-4.1 5.1-6.9 7.2V22c0 6.4-1.5 12.5-4.4 18.4 -3 5.9-7.5 10.9-13.7 15 -6.3 4.1-13.5 6.1-21.6 6.1 -7.8 0-15-2.1-21.4-6.2 0.7 0.1 1.8 0.1 3.4 0.1 6.5 0 12.3-2 17.3-5.9 -3.1-0.1-5.8-1-8.1-2.8 -2.4-1.8-4-4.1-4.9-6.9 0.5 0.2 1.3 0.3 2.5 0.3 1.3 0 2.5-0.1 3.7-0.4 -3.3-0.7-5.9-2.3-8-4.9 -2.1-2.6-3.1-5.5-3.1-8.8v-0.1c1.8 1 3.8 1.6 6.2 1.8C4.9 24.8 2.8 21 2.8 16.1c0-2.4 0.6-4.7 1.9-6.9 7.6 9.2 17.2 14.1 28.8 14.5 -0.3-0.9-0.4-1.9-0.4-3.1 0-3.8 1.4-7.1 4.1-9.8 2.7-2.9 6-4.3 10-4.3s7.4 1.4 10.1 4.3c3-0.6 5.9-1.7 8.9-3.2 -1 3.2-3 5.8-6.1 7.7C62.8 14.8 65.4 14.1 68 13L68 13"/></svg>
