<svg class="icon icon-rss" version="1.1" xmlns="http://www.w3.org/2000/svg" x="0" y="0" width="25" height="25" viewBox="0 0 25 25" preserveAspectRatio="xMinYMin"><path class="icon-background icon-rss--background" d="M25 4.69v15.63c0 1.29-0.46 2.4-1.37 3.31C22.71 24.54 21.6 25 20.31 25H4.69c-1.29 0-2.4-0.46-3.31-1.37C0.46 22.71 0 21.6 0 20.31V4.69c0-1.29 0.46-2.4 1.38-3.31C2.29 0.46 3.4 0 4.69 0h15.63c1.29 0 2.4 0.46 3.31 1.38C24.54 2.29 25 3.4 25 4.69z"/><path class="icon-foreground icon-rss--foreground" d="M8.33 18.75c0-0.57-0.2-1.07-0.61-1.47 -0.41-0.41-0.9-0.61-1.47-0.61s-1.07 0.2-1.47 0.61c-0.41 0.41-0.61 0.9-0.61 1.47s0.2 1.07 0.61 1.47c0.41 0.41 0.9 0.61 1.47 0.61s1.07-0.2 1.47-0.61C8.13 19.82 8.33 19.33 8.33 18.75zM14.05 20.28c-0.14-2.52-1.1-4.67-2.88-6.44 -1.78-1.78-3.93-2.74-6.44-2.88C4.57 10.94 4.44 10.99 4.33 11.1c-0.11 0.11-0.16 0.23-0.16 0.38v2.08c0 0.14 0.05 0.26 0.14 0.36s0.21 0.15 0.35 0.16c1.67 0.12 3.1 0.78 4.3 1.97 1.19 1.19 1.85 2.63 1.97 4.3 0.01 0.14 0.07 0.26 0.16 0.35s0.22 0.14 0.36 0.14h2.08c0.14 0 0.27-0.05 0.38-0.16C14.01 20.56 14.06 20.43 14.05 20.28zM20.3 20.3c-0.05-1.67-0.36-3.28-0.91-4.84s-1.31-2.97-2.27-4.23 -2.07-2.38-3.34-3.34 -2.67-1.72-4.23-2.27S6.38 4.76 4.7 4.7C4.55 4.69 4.43 4.74 4.33 4.85 4.22 4.96 4.17 5.08 4.17 5.23v2.08c0 0.14 0.05 0.26 0.15 0.36S4.53 7.82 4.67 7.83c2.21 0.08 4.26 0.68 6.15 1.82 1.89 1.13 3.4 2.65 4.53 4.53 1.13 1.89 1.74 3.94 1.82 6.15 0.01 0.14 0.07 0.26 0.16 0.36s0.22 0.15 0.36 0.15h2.08c0.14 0 0.27-0.05 0.38-0.16C20.27 20.57 20.32 20.45 20.3 20.3zM25 4.69v15.63c0 1.29-0.46 2.4-1.37 3.31C22.71 24.54 21.6 25 20.31 25H4.69c-1.29 0-2.4-0.46-3.31-1.37C0.46 22.71 0 21.6 0 20.31V4.69c0-1.29 0.46-2.4 1.38-3.31C2.29 0.46 3.4 0 4.69 0h15.63c1.29 0 2.4 0.46 3.31 1.38C24.54 2.29 25 3.4 25 4.69z"/></svg>
