<svg class="icon icon-tumblr" version="1.1" xmlns="http://www.w3.org/2000/svg" x="0" y="0" width="68" height="68" viewBox="-24.5 -18.5 68 68" preserveAspectRatio="xMinYMin"><path class="icon-foreground icon-tumblr--foreground" d="M30.3 45.6c-2.4 1.3-5 2.2-7.9 2.9 -2.4 0.9-4.8 1.1-7.7 1.1 -2.9 0-5.7-0.4-8.1-1.1C4 47.5 2 46.2 0.5 45.1 -1.2 43.6-2.3 42-3 40.3c-0.4-1.5-0.9-3.9-0.9-7.2V9.4h-7.5v-9.7c2.6-0.9 5-2.2 6.8-3.7 2-1.5 3.5-3.5 4.6-5.9 1.3-2.6 2-5.5 2.2-8.6h9.7v17.1h16V9.4h-16v17.6c0 4.2 0.2 6.6 0.7 7.5 0.4 1.1 1.3 2 2.4 2.6 1.3 1.1 3.1 1.5 5 1.5 3.3 0 6.8-1.1 10.3-3.5v10.7l0 0"/></svg>
