<svg class="icon icon-github" version="1.1" xmlns="http://www.w3.org/2000/svg" x="0" y="0" width="68" height="68" viewBox="0 -5 68 68" preserveAspectRatio="xMinYMin"><path class="icon-foreground icon-github--foreground" d="M46 33.8c1.3 0 2.4 0.7 3.4 2 1 1.3 1.4 2.9 1.4 4.8s-0.5 3.5-1.4 4.8c-1 1.3-2.1 2-3.4 2 -1.4 0-2.6-0.7-3.5-2 -1-1.3-1.4-2.9-1.4-4.8 0-1.9 0.5-3.5 1.4-4.8C43.5 34.5 44.6 33.8 46 33.8L46 33.8M63 16.1c3.7 4 5.6 8.9 5.6 14.7 0 3.7-0.4 7.1-1.3 10.1 -0.9 3-1.9 5.4-3.2 7.3 -1.3 1.9-2.9 3.5-4.8 4.9 -1.9 1.4-3.7 2.4-5.3 3.1 -1.6 0.7-3.4 1.2-5.5 1.5 -2.1 0.4-3.6 0.6-4.7 0.6 -1 0.1-2.2 0.1-3.4 0.1 -0.3 0-1.2 0-2.7 0.1 -1.5 0.1-2.7 0.1-3.8 0.1 -1 0-2.3 0-3.8-0.1 -1.5-0.1-2.4-0.1-2.7-0.1 -1.2 0-2.3 0-3.4-0.1 -1.1-0.1-2.6-0.3-4.7-0.6 -2.1-0.4-3.9-0.9-5.5-1.5 -1.6-0.7-3.4-1.7-5.3-3.1 -1.9-1.4-3.5-3.1-4.8-4.9 -1.3-1.9-2.4-4.3-3.2-7.3 -0.8-3-1.3-6.3-1.3-10.1 0-5.7 1.9-10.6 5.6-14.7 -0.4-0.2-0.4-2.2-0.1-6.1C5.3 6.3 6.1 2.7 7.4-0.5 12 0 17.7 2.6 24.5 7.4 26.8 6.8 30 6.5 34 6.5c4.2 0 7.4 0.3 9.5 0.9 3.1-2.1 6.1-3.8 9-5.1 2.9-1.3 4.9-2.1 6.2-2.3l2-0.4c1.3 3.2 2.1 6.8 2.5 10.6C63.4 13.9 63.4 15.9 63 16.1L63 16.1M34.2 55c8.3 0 14.6-1 18.9-3 4.3-2 6.4-6.2 6.4-12.4 0-3.6-1.4-6.7-4.1-9.1 -1.4-1.3-3-2.1-4.9-2.4 -1.9-0.3-4.7-0.3-8.5 0 -3.8 0.3-6.4 0.5-7.8 0.5H34h-0.2c-1.6 0-3.7-0.1-6.2-0.3 -2.6-0.2-4.6-0.3-6-0.4 -1.5-0.1-3 0.1-4.7 0.5 -1.7 0.4-3.1 1.1-4.2 2.1 -2.6 2.3-3.9 5.4-3.9 9.1 0 6.3 2.1 10.4 6.3 12.4 4.2 2 10.5 3 18.8 3L34.2 55 34.2 55M22.1 33.8c1.3 0 2.4 0.7 3.4 2 1 1.3 1.4 2.9 1.4 4.8s-0.5 3.5-1.4 4.8c-1 1.3-2.1 2-3.4 2 -1.4 0-2.6-0.7-3.5-2 -1-1.3-1.4-2.9-1.4-4.8 0-1.9 0.5-3.5 1.4-4.8C19.5 34.5 20.7 33.8 22.1 33.8L22.1 33.8"/></svg>
